<?xml version="1.0" encoding="UTF-8"?>
<svg width="29px" height="24px" viewBox="0 0 29 24" version="1.1" xmlns="http://www.w3.org/2000/svg" xmlns:xlink="http://www.w3.org/1999/xlink">
    <!-- Generator: Sketch 49.3 (51167) - http://www.bohemiancoding.com/sketch -->
    <title>if_camera_1814094</title>
    <desc>Created with Sketch.</desc>
    <defs></defs>
    <g id="Page-1" stroke="none" stroke-width="1" fill="none" fill-rule="evenodd">
        <g id="Desktop-HD-Copy" transform="translate(-569.000000, -125.000000)" fill="#FFFFFF" fill-rule="nonzero">
            <g id="if_camera_1814094" transform="translate(569.000000, 125.000000)">
                <path d="M26.1,23.7 L2.7,23.7 C1.32,23.7 0.18,22.56 0.18,21.18 L0.18,6.12 C0.18,4.74 1.32,3.6 2.7,3.6 L7.74,3.6 C7.86,3.6 8.16,3.42 8.22,3.3 L9.12,1.44 C9.48,0.78 10.32,0.24 11.1,0.24 L17.76,0.24 C18.54,0.24 19.38,0.78 19.74,1.44 L20.64,3.3 C20.7,3.42 20.94,3.6 21.12,3.6 L26.16,3.6 C27.54,3.6 28.68,4.74 28.68,6.12 L28.68,21.18 C28.62,22.56 27.48,23.7 26.1,23.7 Z M2.7,5.34 C2.22,5.34 1.86,5.7 1.86,6.18 L1.86,21.24 C1.86,21.72 2.22,22.08 2.7,22.08 L26.1,22.08 C26.58,22.08 26.94,21.72 26.94,21.24 L26.94,6.18 C26.94,5.7 26.58,5.34 26.1,5.34 L21.06,5.34 C20.28,5.34 19.44,4.8 19.08,4.14 L18.18,2.28 C18.12,2.16 17.88,1.98 17.7,1.98 L11.04,1.98 C10.92,1.98 10.62,2.16 10.56,2.28 L9.66,4.14 C9.3,4.8 8.46,5.34 7.68,5.34 L2.7,5.34 Z" id="Fill-21_1_"></path>
                <path d="M14.4,20.34 C10.26,20.34 6.9,16.98 6.9,12.84 C6.9,8.7 10.26,5.34 14.4,5.34 C18.54,5.34 21.9,8.7 21.9,12.84 C21.9,16.98 18.54,20.34 14.4,20.34 Z M14.4,6.96 C11.16,6.96 8.52,9.6 8.52,12.84 C8.52,16.08 11.16,18.72 14.4,18.72 C17.64,18.72 20.28,16.08 20.28,12.84 C20.28,9.6 17.64,6.96 14.4,6.96 Z" id="Fill-22_1_"></path>
                <path d="M23.58,6.96 C23.58,7.44 23.22,7.8 22.74,7.8 C22.26,7.8 21.9,7.44 21.9,6.96 C21.9,6.48 22.26,6.12 22.74,6.12 C23.22,6.12 23.58,6.54 23.58,6.96" id="Fill-23_1_"></path>
                <polygon id="Fill-24_1_" points="3.54 1.98 6.9 1.98 6.9 2.82 3.54 2.82"></polygon>
                <path d="M14.4,9.48 L14.4,8.64 C12.12,8.64 10.2,10.5 10.2,12.84 L11.04,12.84 C11.04,10.98 12.54,9.48 14.4,9.48" id="Fill-25_1_"></path>
            </g>
        </g>
    </g>
</svg>