<?xml version="1.0" encoding="UTF-8"?>
<svg width="24px" height="26px" viewBox="0 0 24 26" version="1.1" xmlns="http://www.w3.org/2000/svg" xmlns:xlink="http://www.w3.org/1999/xlink">
    <!-- Generator: Sketch 49.3 (51167) - http://www.bohemiancoding.com/sketch -->
    <title>if_layers_2639848</title>
    <desc>Created with Sketch.</desc>
    <defs></defs>
    <g id="Page-1" stroke="none" stroke-width="1" fill="none" fill-rule="evenodd">
        <g id="Desktop-HD-Copy" transform="translate(-435.000000, -124.000000)" fill-rule="nonzero" stroke="#FFFFFF">
            <g id="if_layers_2639848" transform="translate(436.000000, 125.000000)">
                <path d="M22,6 C22,5.581 21.741,5.224 21.375,5.076 L11.916,0.222 L11.898,0.222 C11.627,0.085 11.325,0 11,0 C10.675,0 10.373,0.085 10.102,0.222 L10.084,0.222 L0.625,5.076 C0.259,5.224 0,5.581 0,6 C0,6.416 0.255,6.772 0.617,6.923 L0.617,6.943 L10.091,11.781 L10.1,11.777 C10.372,11.915 10.674,12 11,12 C11.326,12 11.628,11.915 11.9,11.777 L11.909,11.781 L21.383,6.943 L21.383,6.923 C21.745,6.772 22,6.416 22,6 Z" id="Shape"></path>
                <path d="M21.375,11.076 L19.524,10.126 C16.619,11.613 12.654,13.637 12.608,13.654 C12.093,13.884 11.553,14 11,14 C10.445,14 9.904,13.883 9.387,13.652 C9.343,13.636 5.382,11.614 2.476,10.126 L0.625,11.076 C0.259,11.224 0,11.581 0,12 C0,12.416 0.255,12.772 0.617,12.923 L0.617,12.943 L10.091,17.781 L10.1,17.777 C10.372,17.915 10.674,18 11,18 C11.326,18 11.628,17.915 11.9,17.777 L11.909,17.781 L21.383,12.943 L21.383,12.923 C21.745,12.772 22,12.416 22,12 C22,11.581 21.741,11.224 21.375,11.076 Z" id="Shape"></path>
                <path d="M21.375,17.076 L19.524,16.126 C16.619,17.613 12.654,19.637 12.608,19.654 C12.093,19.884 11.553,20 11,20 C10.445,20 9.904,19.883 9.387,19.652 C9.343,19.636 5.382,17.614 2.476,16.126 L0.625,17.076 C0.259,17.224 0,17.581 0,18 C0,18.416 0.255,18.772 0.617,18.923 L0.617,18.943 L10.091,23.781 L10.1,23.777 C10.372,23.915 10.674,24 11,24 C11.326,24 11.628,23.915 11.9,23.777 L11.909,23.781 L21.383,18.943 L21.383,18.923 C21.745,18.772 22,18.416 22,18 C22,17.581 21.741,17.224 21.375,17.076 Z" id="Shape"></path>
            </g>
        </g>
    </g>
</svg>