<?xml version="1.0" encoding="UTF-8"?>
<svg width="29px" height="25px" viewBox="0 0 29 25" version="1.1" xmlns="http://www.w3.org/2000/svg" xmlns:xlink="http://www.w3.org/1999/xlink">
    <!-- Generator: Sketch 49.3 (51167) - http://www.bohemiancoding.com/sketch -->
    <title>Group 2</title>
    <desc>Created with Sketch.</desc>
    <defs>
        <polygon id="path-1" points="0 0 3.5 4 7 0 0 0"></polygon>
    </defs>
    <g id="Page-1" stroke="none" stroke-width="1" fill="none" fill-rule="evenodd">
        <g id="Desktop-HD-Copy" transform="translate(-517.000000, -124.000000)">
            <g id="Group-2" transform="translate(517.000000, 124.000000)">
                <g id="if_1-01_511561" transform="translate(10.000000, 0.000000)" fill="#FFFFFF" fill-rule="nonzero">
                    <path d="M17.0183694,25 L1.9813258,25 C0.888853238,25 0,24.1241665 0,23.0476963 L0,1.95230372 C0,0.875833484 0.888853238,0 1.9813258,0 L10.7369569,0 C11.6974427,0 12.9822563,0.524418814 13.6620035,1.19390881 L17.7883431,5.25980657 C18.4677854,5.92929657 19,7.19529044 19,8.14200757 L19,23.0476963 C18.9996952,24.1241665 18.1108419,25 17.0183694,25 Z M1.9813258,0.901063255 C1.39302445,0.901063255 0.914458063,1.37261969 0.914458063,1.95230372 L0.914458063,23.0476963 C0.914458063,23.6273803 1.39302445,24.0989367 1.9813258,24.0989367 L17.0183694,24.0989367 C17.6066707,24.0989367 18.0852371,23.6273803 18.0852371,23.0476963 L18.0852371,8.14200757 C18.0852371,7.44128071 17.6444683,6.39214273 17.1415164,5.89685829 L13.0151768,1.83096053 C12.5125297,1.3356761 11.4474909,0.901063255 10.7366521,0.901063255 L1.9813258,0.901063255 Z" id="Shape"></path>
                    <path d="M16.8440693,7 L13.8404518,7 C12.825655,7 12,6.17432751 12,5.1595092 L12,2.15582822 C12,1.30268995 12.4578478,1 12.8500056,1 C13.138815,1 13.4335704,1.14837187 13.7260607,1.44086833 L17.559014,5.27390278 C18.0930282,5.80792827 18.0281877,6.23605474 17.9423943,6.44388863 C17.8560346,6.65143936 17.5992208,7 16.8440693,7 Z M12.8899293,1.86304861 C12.8723742,1.908353 12.8494393,1.99782916 12.8494393,2.15582822 L12.8494393,5.1595092 C12.8494393,5.70599339 13.2939792,6.15054271 13.8404518,6.15054271 L16.8440693,6.15054271 C17.002065,6.15054271 17.0915393,6.12760736 17.1368427,6.11005191 C17.1173056,6.06559698 17.0703033,5.98603115 16.9584604,5.87446909 L13.1255071,2.04143464 C13.0136642,1.92987258 12.9343832,1.88286928 12.8899293,1.86304861 Z" id="Shape"></path>
                    <path d="M15.5351609,15 L3.46483909,15 C3.20824791,15 3,14.7763333 3,14.5 C3,14.2236667 3.20824791,14 3.46483909,14 L15.5351609,14 C15.7917521,14 16,14.2236667 16,14.5 C16,14.7763333 15.7917521,15 15.5351609,15 Z" id="Shape"></path>
                    <path d="M15.5351609,11 L3.46483909,11 C3.20824791,11 3,10.7763333 3,10.5 C3,10.2236667 3.20824791,10 3.46483909,10 L15.5351609,10 C15.7917521,10 16,10.2236667 16,10.5 C16,10.7763333 15.7917521,11 15.5351609,11 Z" id="Shape"></path>
                    <path d="M9.5594344,7 L3.4405656,7 C3.19737339,7 3,6.77633333 3,6.5 C3,6.22366667 3.19737339,6 3.4405656,6 L9.5594344,6 C9.80262661,6 10,6.22366667 10,6.5 C10,6.77633333 9.80262661,7 9.5594344,7 Z" id="Shape"></path>
                    <path d="M15.5351609,19 L3.46483909,19 C3.20824791,19 3,18.7763333 3,18.5 C3,18.2236667 3.20824791,18 3.46483909,18 L15.5351609,18 C15.7917521,18 16,18.2236667 16,18.5 C16,18.7763333 15.7917521,19 15.5351609,19 Z" id="Shape"></path>
                </g>
                <g id="Group">
                    <g id="Arrows-/-Type-1-Down-Copy">
                        <mask id="mask-2" fill="white">
                            <use xlink:href="#path-1"></use>
                        </mask>
                        <use id="Page-1-Copy" fill="#FFFFFF" transform="translate(3.500000, 2.000000) scale(1, -1) translate(-3.500000, -2.000000) " xlink:href="#path-1"></use>
                    </g>
                    <path d="M3.5,3.5 L3.5,24.5" id="Line-2" stroke="#FFFFFF" stroke-linecap="square"></path>
                </g>
            </g>
        </g>
    </g>
</svg>