<?xml version="1.0" encoding="UTF-8"?>
<svg width="19px" height="25px" viewBox="0 0 19 25" version="1.1" xmlns="http://www.w3.org/2000/svg" xmlns:xlink="http://www.w3.org/1999/xlink">
    <!-- Generator: Sketch 49.3 (51167) - http://www.bohemiancoding.com/sketch -->
    <title>Group 2 Copy</title>
    <desc>Created with Sketch.</desc>
    <defs></defs>
    <g id="Page-1" stroke="none" stroke-width="1" fill="none" fill-rule="evenodd">
        <g id="Desktop-HD-Copy" transform="translate(-615.000000, -124.000000)" fill="#FFFFFF">
            <g id="Group-2-Copy" transform="translate(615.000000, 124.000000)">
                <g id="if_1-01_511561" fill-rule="nonzero">
                    <path d="M17.0183694,25 L1.9813258,25 C0.888853238,25 0,24.1241665 0,23.0476963 L0,1.95230372 C0,0.875833484 0.888853238,0 1.9813258,0 L10.7369569,0 C11.6974427,0 12.9822563,0.524418814 13.6620035,1.19390881 L17.7883431,5.25980657 C18.4677854,5.92929657 19,7.19529044 19,8.14200757 L19,23.0476963 C18.9996952,24.1241665 18.1108419,25 17.0183694,25 Z M1.9813258,0.901063255 C1.39302445,0.901063255 0.914458063,1.37261969 0.914458063,1.95230372 L0.914458063,23.0476963 C0.914458063,23.6273803 1.39302445,24.0989367 1.9813258,24.0989367 L17.0183694,24.0989367 C17.6066707,24.0989367 18.0852371,23.6273803 18.0852371,23.0476963 L18.0852371,8.14200757 C18.0852371,7.44128071 17.6444683,6.39214273 17.1415164,5.89685829 L13.0151768,1.83096053 C12.5125297,1.3356761 11.4474909,0.901063255 10.7366521,0.901063255 L1.9813258,0.901063255 Z" id="Shape"></path>
                    <path d="M16.8440693,7 L13.8404518,7 C12.825655,7 12,6.17432751 12,5.1595092 L12,2.15582822 C12,1.30268995 12.4578478,1 12.8500056,1 C13.138815,1 13.4335704,1.14837187 13.7260607,1.44086833 L17.559014,5.27390278 C18.0930282,5.80792827 18.0281877,6.23605474 17.9423943,6.44388863 C17.8560346,6.65143936 17.5992208,7 16.8440693,7 Z M12.8899293,1.86304861 C12.8723742,1.908353 12.8494393,1.99782916 12.8494393,2.15582822 L12.8494393,5.1595092 C12.8494393,5.70599339 13.2939792,6.15054271 13.8404518,6.15054271 L16.8440693,6.15054271 C17.002065,6.15054271 17.0915393,6.12760736 17.1368427,6.11005191 C17.1173056,6.06559698 17.0703033,5.98603115 16.9584604,5.87446909 L13.1255071,2.04143464 C13.0136642,1.92987258 12.9343832,1.88286928 12.8899293,1.86304861 Z" id="Shape"></path>
                </g>
                <path d="M8.3112793,16.3520508 L5.63061523,16.3520508 L5.02416992,18 L4.14086914,18 L6.61499023,11.6015625 L7.35766602,11.6015625 L9.79223633,18 L8.90893555,18 L8.3112793,16.3520508 Z M5.89868164,15.6269531 L8.05200195,15.6269531 L6.99731445,12.7133789 L6.97094727,12.7133789 L5.89868164,15.6269531 Z M13.8571777,15.8466797 L14.7404785,15.8466797 L14.7404785,16.5234375 L13.8571777,16.5234375 L13.8571777,18 L12.9958496,18 L12.9958496,16.5234375 L10.1218262,16.5234375 L10.1218262,16.0356445 L12.9431152,11.6015625 L13.8571777,11.6015625 L13.8571777,15.8466797 Z M11.0446777,15.8466797 L12.9958496,15.8466797 L12.9958496,12.8452148 L12.9694824,12.8408203 L12.8859863,13.0605469 L11.0446777,15.8466797 Z" id="A4"></path>
            </g>
        </g>
    </g>
</svg>